# xmcd
#
# Track frame offsets:
# 150
# 14216
# 27649
# 51392
# 71267
# 93406
#
# Disc length: 1459 seconds
#
#
# Revision: 1
# Processed by: cddbd v1.5.2PL0 Copyright (c) Steve Scherf et al.
# Submitted via: FreeRIP 2.96 
#
DISCID=5205b106
DTITLE=Fig Jam Blues Band [AUS] - The Call
DYEAR=1999
DGENRE=Blues
TTITLE0=The Call [from 'The Call', 1999] [MLVox]
TTITLE1=Money Man [from 'The Call', 1999] [MLVox]
TTITLE2=Fig Jam Groove [from 'The Call', 1999] [MLVox]
TTITLE3=Snake in the Grass [from 'The Call', 1999] [MLVox]
TTITLE4=Lonely Heart Blues [from 'The Call', 1999] [MLVox]
TTITLE5=Friday Night [from 'The Call', 1999] [MLVox]
EXTD=Australian artist from Kalgoorlie, Western Australia (to be confirmed)
EXTT0=
EXTT1=
EXTT2=
EXTT3=
EXTT4=
EXTT5=
PLAYORDER=
